<?xml version="1.0" standalone="no"?>
<!DOCTYPE svg PUBLIC "-//W3C//DTD SVG 20010904//EN"
 "http://www.w3.org/TR/2001/REC-SVG-20010904/DTD/svg10.dtd">
<svg version="1.0" xmlns="http://www.w3.org/2000/svg"
 width="1024.000000pt" height="1024.000000pt" viewBox="0 0 1024.000000 1024.000000"
 preserveAspectRatio="xMidYMid meet">

<g transform="translate(0.000000,1024.000000) scale(0.100000,-0.100000)"
fill="#000000" stroke="none">
<path d="M4770 8774 c-30 -7 -84 -18 -120 -23 -134 -20 -271 -56 -465 -123
-123 -43 -405 -188 -532 -274 -362 -246 -602 -493 -812 -837 -145 -237 -230
-435 -326 -762 -48 -164 -57 -287 -52 -730 3 -320 7 -420 21 -500 26 -149 85
-424 100 -470 7 -22 26 -80 40 -130 119 -403 374 -963 601 -1320 17 -27 58
-93 91 -145 83 -134 248 -369 328 -470 327 -407 363 -451 512 -615 108 -120
578 -584 664 -656 62 -53 134 -118 204 -185 19 -18 74 -44 93 -44 38 0 98 44
263 195 30 27 59 55 66 60 233 205 452 421 623 614 319 362 476 559 746 942
313 442 580 955 734 1409 13 36 31 88 41 115 10 28 25 77 33 110 9 33 25 96
37 140 43 166 49 193 69 305 33 190 41 264 52 474 20 358 0 663 -57 886 -26
104 -118 376 -134 395 -4 5 -24 47 -44 93 -37 84 -125 244 -198 356 -79 123
-131 188 -328 409 -32 36 -211 194 -287 253 -225 174 -554 354 -738 403 -16 5
-41 13 -55 19 -71 31 -287 78 -392 87 -42 3 -111 12 -153 20 -103 20 -545 19
-625 -1z m640 -504 c25 -6 72 -15 105 -20 135 -24 370 -107 538 -191 488 -245
823 -616 1043 -1155 112 -277 157 -643 124 -1009 -25 -269 -138 -609 -275
-822 -21 -32 -54 -83 -73 -113 -54 -83 -211 -276 -287 -353 -80 -81 -216 -196
-305 -259 -234 -164 -600 -308 -885 -347 -192 -27 -557 -22 -700 9 -214 47
-347 93 -543 187 -445 215 -813 583 -1017 1018 -73 154 -145 364 -182 530 -27
118 -26 646 0 785 59 309 218 670 388 879 16 20 45 56 65 81 65 82 277 291
362 356 126 98 244 172 371 232 63 30 126 58 140 63 14 4 58 20 96 34 39 15
88 30 110 35 22 5 51 13 65 18 14 5 48 13 75 17 28 3 73 13 100 20 60 16 613
20 685 5z"/>
<path d="M5890 7359 c-30 -11 -69 -24 -86 -28 -18 -5 -37 -11 -43 -15 -17 -11
-576 -207 -816 -287 -82 -27 -159 -54 -317 -111 l-58 -20 0 -699 0 -698 -22
-15 c-15 -11 -45 -16 -88 -16 -108 0 -178 -29 -249 -105 -71 -77 -96 -144 -88
-240 10 -121 56 -202 150 -265 l59 -40 104 0 c91 0 111 3 152 24 90 47 149
120 178 221 16 54 18 143 23 853 l6 794 23 18 c12 10 44 26 70 35 26 10 72 26
102 37 30 12 71 26 90 33 19 7 73 27 120 45 106 39 380 136 440 155 25 8 60
15 78 15 62 0 62 -3 62 -604 0 -634 13 -576 -131 -587 -170 -12 -250 -62 -308
-189 -16 -35 -21 -66 -21 -138 0 -109 16 -150 89 -225 69 -72 109 -90 218 -95
81 -4 97 -2 146 21 75 34 131 87 167 159 l30 61 0 964 c0 764 -3 963 -12 962
-7 0 -38 -9 -68 -20z"/>
</g>
</svg>
